<svg xmlns="http://www.w3.org/2000/svg" viewBox="0 0 128 128" width="128" height="128">
  <rect x="4" y="4" width="120" height="120" rx="16" ry="16" fill="#f5f5f5" stroke="#d0d0d0" stroke-width="2"/>
  <rect x="12" y="12" width="104" height="68" rx="4" ry="4" fill="#e8e8e8"/>
  <circle cx="40" cy="38" r="10" fill="#b0d4f1"/>
  <polygon points="70,24 70,52 96,38" fill="#7cb9e8"/>
  <rect x="12" y="88" width="104" height="28" rx="4" ry="4" fill="#3a3a3a"/>
  <text x="64" y="109" text-anchor="middle" font-family="Arial,Helvetica,sans-serif" font-weight="bold" font-size="22" fill="#ffffff" letter-spacing="2">GIF</text>
  <rect x="90" y="6" width="34" height="18" rx="6" ry="6" fill="#e8453c"/>
  <text x="107" y="19.5" text-anchor="middle" font-family="Arial,Helvetica,sans-serif" font-weight="bold" font-size="11" fill="#ffffff">GIF</text>
  <rect x="10" y="82" width="108" height="4" rx="1" ry="1" fill="#c8c8c8"/>
  <circle cx="22" cy="84" r="2.5" fill="#999"/>
  <circle cx="32" cy="84" r="2.5" fill="#999"/>
  <circle cx="42" cy="84" r="2.5" fill="#999"/>
  <circle cx="52" cy="84" r="2.5" fill="#999"/>
  <circle cx="62" cy="84" r="2.5" fill="#999"/>
  <circle cx="72" cy="84" r="2.5" fill="#999"/>
  <circle cx="82" cy="84" r="2.5" fill="#999"/>
  <circle cx="92" cy="84" r="2.5" fill="#999"/>
  <circle cx="102" cy="84" r="2.5" fill="#999"/>
  <circle cx="112" cy="84" r="2.5" fill="#999"/>
</svg>
